<svg width="1376" height="768" viewBox="0 0 1376 768" xmlns="http://www.w3.org/2000/svg">
  <defs>
    <linearGradient id="iconGrad" x1="0" y1="0" x2="1" y2="1">
      <stop offset="0" stop-color="#14b8a6"/>
      <stop offset="1" stop-color="#0d9488"/>
    </linearGradient>
    <linearGradient id="divider" x1="0" y1="0" x2="1" y2="0">
      <stop offset="0" stop-color="#14b8a6" stop-opacity="0"/>
      <stop offset="0.5" stop-color="#14b8a6"/>
      <stop offset="1" stop-color="#14b8a6" stop-opacity="0"/>
    </linearGradient>
  </defs>
  <rect width="1376" height="768" fill="#ffffff"/>

  <rect x="638" y="86" width="100" height="100" rx="24" fill="url(#iconGrad)"/>
  <text x="688" y="152" font-family="Arial, sans-serif" font-size="52" font-weight="700" fill="#ffffff" text-anchor="middle">$</text>

  <text x="688" y="272" font-family="Arial, sans-serif" font-size="54" font-weight="800" text-anchor="middle">
    <tspan fill="#111827">Credit</tspan><tspan fill="#14b8a6">Manager</tspan>
  </text>

  <text x="688" y="322" font-family="Arial, sans-serif" font-size="26" fill="#14b8a6" text-anchor="middle">Score. Decide. Lend.</text>

  <rect x="618" y="352" width="140" height="3" fill="url(#divider)"/>

  <line x1="418" y1="440" x2="600" y2="440" stroke="#e5e7eb" stroke-width="1"/>
  <text x="688" y="446" font-family="Arial, sans-serif" font-size="19" fill="#6b7280" text-anchor="middle">Tech Stack</text>
  <line x1="776" y1="440" x2="958" y2="440" stroke="#e5e7eb" stroke-width="1"/>

  <!-- pills -->
  <g font-family="Arial, sans-serif">
    <g transform="translate(284,470)">
      <rect width="184" height="130" rx="18" fill="#ffffff" stroke="#e5e7eb" stroke-width="1.5"/>
      <rect x="62" y="26" width="60" height="60" rx="14" fill="#0d9488"/>
      <text x="92" y="65" font-size="24" font-weight="700" fill="#ffffff" text-anchor="middle">Fa</text>
      <text x="92" y="112" font-size="17" fill="#111827" text-anchor="middle">FastAPI</text>
    </g>
    <g transform="translate(492,470)">
      <rect width="184" height="130" rx="18" fill="#ffffff" stroke="#e5e7eb" stroke-width="1.5"/>
      <rect x="62" y="26" width="60" height="60" rx="14" fill="#2563eb"/>
      <text x="92" y="65" font-size="24" font-weight="700" fill="#ffffff" text-anchor="middle">Db</text>
      <text x="92" y="112" font-size="17" fill="#111827" text-anchor="middle">MariaDB</text>
    </g>
    <g transform="translate(700,470)">
      <rect width="184" height="130" rx="18" fill="#ffffff" stroke="#e5e7eb" stroke-width="1.5"/>
      <rect x="62" y="26" width="60" height="60" rx="14" fill="#dc2626"/>
      <text x="92" y="65" font-size="24" font-weight="700" fill="#ffffff" text-anchor="middle">Kc</text>
      <text x="92" y="112" font-size="17" fill="#111827" text-anchor="middle">Keycloak</text>
    </g>
    <g transform="translate(908,470)">
      <rect width="184" height="130" rx="18" fill="#ffffff" stroke="#e5e7eb" stroke-width="1.5"/>
      <rect x="62" y="26" width="60" height="60" rx="14" fill="#7c3aed"/>
      <text x="92" y="65" font-size="24" font-weight="700" fill="#ffffff" text-anchor="middle">Ir</text>
      <text x="92" y="112" font-size="17" fill="#111827" text-anchor="middle">IRAS</text>
    </g>
  </g>
</svg>
